<?xml version="1.0" encoding="utf-8"?>
<!-- Generator: Adobe Illustrator 24.0.1, SVG Export Plug-In . SVG Version: 6.00 Build 0)  -->
<svg version="1.1" id="Layer_1" xmlns="http://www.w3.org/2000/svg" xmlns:xlink="http://www.w3.org/1999/xlink" x="0px" y="0px"
	 viewBox="0 0 425.2 425.2" style="enable-background:new 0 0 425.2 425.2;" xml:space="preserve">
<style type="text/css">
	.st0{fill:#FFFFFF;stroke:#000000;stroke-width:12;stroke-miterlimit:10;}
	.st1{fill:none;stroke:#000000;stroke-width:8;stroke-miterlimit:10;}
	.st2{fill:none;stroke:#000000;stroke-width:12;stroke-miterlimit:10;}
</style>
<g>
	<path class="st0" d="M282.27,393.58H96.17c-11.23,0-20.34-9.11-20.34-20.34V73.76c0-11.23,9.11-20.34,20.34-20.34h186.1
		c11.23,0,20.34,9.11,20.34,20.34v299.48C302.61,384.47,293.5,393.58,282.27,393.58z"/>
	<g>
		<line class="st1" x1="100.75" y1="95.94" x2="215.65" y2="95.94"/>
		<line class="st1" x1="236.33" y1="95.94" x2="277.69" y2="95.94"/>
	</g>
	<g>
		<line class="st1" x1="100.75" y1="124.29" x2="215.65" y2="124.29"/>
		<line class="st1" x1="236.33" y1="124.29" x2="277.69" y2="124.29"/>
	</g>
	<g>
		<line class="st1" x1="100.75" y1="152.63" x2="215.65" y2="152.63"/>
		<line class="st1" x1="236.33" y1="152.63" x2="277.69" y2="152.63"/>
	</g>
	<g>
		<line class="st1" x1="100.75" y1="180.98" x2="215.65" y2="180.98"/>
		<line class="st1" x1="236.33" y1="180.98" x2="277.69" y2="180.98"/>
	</g>
	<g>
		<line class="st1" x1="100.75" y1="209.33" x2="215.65" y2="209.33"/>
		<line class="st1" x1="236.33" y1="209.33" x2="277.69" y2="209.33"/>
	</g>
	<line class="st2" x1="219.31" y1="286.59" x2="277.69" y2="285.96"/>
</g>
</svg>
